<svg xmlns="http://www.w3.org/2000/svg" viewBox="0 0 48 48">
  <!-- Bar 1 (shortest) -->
  <path d="M 10 38 L 10 28 Q 9.5 26.5, 11 27 L 14 27 Q 15.5 26.5, 15 28 L 15 38"
        stroke="#1a4a7a" stroke-width="2.5" stroke-linecap="round" stroke-linejoin="round" fill="none"/>
  <!-- Bar 2 (tallest) -->
  <path d="M 19 38 L 19 12 Q 18.5 10.5, 20 11 L 23 11 Q 24.5 10.5, 24 12 L 24 38"
        stroke="#1a4a7a" stroke-width="2.5" stroke-linecap="round" stroke-linejoin="round" fill="none"/>
  <!-- Bar 3 (medium) -->
  <path d="M 28 38 L 28 20 Q 27.5 18.5, 29 19 L 32 19 Q 33.5 18.5, 33 20 L 33 38"
        stroke="#1a4a7a" stroke-width="2.5" stroke-linecap="round" stroke-linejoin="round" fill="none"/>
  <!-- Bar 4 (medium-tall) -->
  <path d="M 37 38 L 37 16 Q 36.5 14.5, 38 15 L 41 15 Q 42.5 14.5, 42 16 L 42 38"
        stroke="#1a4a7a" stroke-width="2.5" stroke-linecap="round" stroke-linejoin="round" fill="none"/>
  <!-- Baseline -->
  <path d="M 6 38.5 L 45 38.5"
        stroke="#1a4a7a" stroke-width="2" stroke-linecap="round"/>
</svg>
