<svg xmlns="http://www.w3.org/2000/svg" viewBox="0 0 48 48">
  <!-- Trophy cup -->
  <path d="M 15 8 Q 14.5 7.5, 15.5 8 L 32.5 8 Q 33.5 7.5, 33 8 L 33 16 Q 33 22, 24 26 Q 15 22, 15 16 Z"
        stroke="#1a4a7a" stroke-width="2.5" stroke-linecap="round" stroke-linejoin="round" fill="none"/>
  <!-- Left handle -->
  <path d="M 15 12 Q 8 12, 8 18 Q 8 23, 14 23"
        stroke="#1a4a7a" stroke-width="2.5" stroke-linecap="round" fill="none"/>
  <!-- Right handle -->
  <path d="M 33 12 Q 40 12, 40 18 Q 40 23, 34 23"
        stroke="#1a4a7a" stroke-width="2.5" stroke-linecap="round" fill="none"/>
  <!-- Stem -->
  <path d="M 24 26 L 24 34"
        stroke="#1a4a7a" stroke-width="2.5" stroke-linecap="round"/>
  <!-- Base -->
  <path d="M 16 34 Q 15.5 33.5, 16 34.5 L 16 38 Q 15.5 39.5, 17 39 L 31 39 Q 32.5 39.5, 32 38 L 32 34.5 Q 32.5 33.5, 32 34"
        stroke="#1a4a7a" stroke-width="2.5" stroke-linecap="round" stroke-linejoin="round" fill="none"/>
</svg>
